{
  "accessors": [
    {
      "bufferView": 0,
      "componentType": 5125,
      "count": 43836,
      "type": "SCALAR"
    },
    {
      "bufferView": 1,
      "componentType": 5126,
      "count": 8340,
      "max": [
        0.02236512016806244,
        0.022365114814973164,
        0.03619714601874892
      ],
      "min": [
        -0.02236512016806247,
        -0.02236511481497308,
        -0.03619714601874892
      ],
      "type": "VEC3"
    },
    {
      "bufferView": 2,
      "componentType": 5126,
      "count": 8340,
      "max": [
        0.999999999999835,
        0.999999999999835,
        0.9997833991481537
      ],
      "min": [
        -0.999999999999835,
        -0.999999999999835,
        -0.9997833991481537
      ],
      "type": "VEC3"
    },
    {
      "bufferView": 3,
      "componentType": 5126,
      "count": 8340,
      "max": [
        0.7101575331259753,
        1.0
      ],
      "min": [
        0.0,
        0.0
      ],
      "type": "VEC2"
    }
  ],
  "asset": {
    "generator": "Adobe Illustrator",
    "version": "2.0"
  },
  "bufferViews": [
    {
      "buffer": 0,
      "byteLength": 175344,
      "target": 34963
    },
    {
      "buffer": 0,
      "byteLength": 100080,
      "byteOffset": 175344,
      "target": 34962
    },
    {
      "buffer": 0,
      "byteLength": 100080,
      "byteOffset": 275424,
      "target": 34962
    },
    {
      "buffer": 0,
      "byteLength": 66720,
      "byteOffset": 375504,
      "target": 34962
    }
  ],
  "buffers": [
    {
      "byteLength": 442224,
      "uri": "data:application/octet-stream;base64,"
    }
  ],
  "materials": [
    {
      "doubleSided": true,
      "pbrMetallicRoughness": {
        "baseColorFactor": [
          0.0,
          0.0,
          0.0,
          1.0
        ],
        "metallicFactor": 0.0,
        "roughnessFactor": 0.4000000059604645
      }
    }
  ],
  "meshes": [
    {
      "primitives": [
        {
          "attributes": {
            "NORMAL": 2,
            "POSITION": 1,
            "TEXCOORD_0": 3
          },
          "indices": 0,
          "material": 0,
          "mode": 4
        }
      ]
    }
  ],
  "nodes": [
    {
      "mesh": 0
    }
  ],
  "scenes": [
    {
      "nodes": [
        0
      ]
    }
  ]
}
